<svg xmlns="http://www.w3.org/2000/svg" viewBox="0 0 512 512">
  <rect width="512" height="512" rx="112" fill="#184838" />
  <path
    fill="#f6f7f3"
    d="M256 150c18 0 34 18 34 48v130c0 30-16 52-34 52s-34-22-34-52V198c0-30 16-48 34-48Z"
  />
  <path
    fill="#f6f7f3"
    d="M214 204c-56-58-128-57-158-14-29 42-2 123 91 171 42 22 79 19 96-2-28-22-42-58-42-107 0-19 5-37 13-48Z"
  />
  <path
    fill="#f6f7f3"
    d="M298 204c56-58 128-57 158-14 29 42 2 123-91 171-42 22-79 19-96-2 28-22 42-58 42-107 0-19-5-37-13-48Z"
  />
  <path
    fill="none"
    stroke="#f6f7f3"
    stroke-linecap="round"
    stroke-width="20"
    d="M238 162c-24-42-57-63-96-66M274 162c24-42 57-63 96-66"
  />
  <circle cx="238" cy="213" r="8" fill="#184838" />
  <circle cx="274" cy="213" r="8" fill="#184838" />
</svg>
