<svg xmlns="http://www.w3.org/2000/svg" width="1280" height="640" viewBox="0 0 1280 640">
  <rect width="1280" height="640" fill="#f6f7f3" />
  <rect x="48" y="48" width="1184" height="544" rx="36" fill="#ffffff" stroke="#d8ded4" />
  <g transform="translate(88 92)">
    <rect width="112" height="112" rx="28" fill="#184838" />
    <path
      fill="#f6f7f3"
      d="M56 31c4 0 8 5 8 12v28c0 8-4 13-8 13s-8-5-8-13V43c0-7 4-12 8-12Z"
    />
    <path
      fill="#f6f7f3"
      d="M46 43c-13-13-29-13-36-3-6 10 0 28 21 39 10 5 18 4 22-1-6-5-10-13-10-25 0-4 1-8 3-10Z"
    />
    <path
      fill="#f6f7f3"
      d="M66 43c13-13 29-13 36-3 6 10 0 28-21 39-10 5-18 4-22-1 6-5 10-13 10-25 0-4-1-8-3-10Z"
    />
    <path
      fill="none"
      stroke="#f6f7f3"
      stroke-linecap="round"
      stroke-width="5"
      d="M52 34c-6-10-13-15-22-16M60 34c6-10 13-15 22-16"
    />
    <circle cx="52" cy="47" r="2" fill="#184838" />
    <circle cx="60" cy="47" r="2" fill="#184838" />
  </g>
  <text
    x="88"
    y="265"
    fill="#184838"
    font-family="-apple-system, BlinkMacSystemFont, 'Segoe UI', sans-serif"
    font-size="86"
    font-weight="800"
  >
    夜虫指数
  </text>
  <text
    x="92"
    y="326"
    fill="#5f8172"
    font-family="-apple-system, BlinkMacSystemFont, 'Segoe UI', sans-serif"
    font-size="28"
    font-weight="700"
    letter-spacing="4"
  >
    YORU-MUSHI-INDEX
  </text>
  <text
    x="92"
    y="382"
    fill="#26312d"
    font-family="-apple-system, BlinkMacSystemFont, 'Segoe UI', sans-serif"
    font-size="32"
    font-weight="650"
  >
    気象条件と月明かりから、
  </text>
  <text
    x="92"
    y="430"
    fill="#26312d"
    font-family="-apple-system, BlinkMacSystemFont, 'Segoe UI', sans-serif"
    font-size="32"
    font-weight="650"
  >
    今夜の夜間昆虫の飛翔条件を推定
  </text>
  <text
    x="92"
    y="494"
    fill="#5f8172"
    font-family="-apple-system, BlinkMacSystemFont, 'Segoe UI', sans-serif"
    font-size="34"
    font-weight="750"
  >
    yorumushi.com
  </text>
  <g transform="translate(805 122)">
    <rect width="340" height="396" rx="28" fill="#f0f3ed" />
    <text
      x="42"
      y="80"
      fill="#5f8172"
      font-family="-apple-system, BlinkMacSystemFont, 'Segoe UI', sans-serif"
      font-size="24"
      font-weight="800"
      letter-spacing="4"
    >
      AREA FORECAST
    </text>
    <text
      x="42"
      y="153"
      fill="#184838"
      font-family="-apple-system, BlinkMacSystemFont, 'Segoe UI', sans-serif"
      font-size="108"
      font-weight="850"
    >
      90
    </text>
    <text
      x="183"
      y="146"
      fill="#8b9891"
      font-family="-apple-system, BlinkMacSystemFont, 'Segoe UI', sans-serif"
      font-size="28"
      font-weight="800"
    >
      / 100
    </text>
    <rect x="42" y="198" width="132" height="46" rx="23" fill="#dfe8e3" />
    <text
      x="69"
      y="229"
      fill="#184838"
      font-family="-apple-system, BlinkMacSystemFont, 'Segoe UI', sans-serif"
      font-size="18"
      font-weight="800"
    >
      とても高い
    </text>
    <text
      x="42"
      y="299"
      fill="#26312d"
      font-family="-apple-system, BlinkMacSystemFont, 'Segoe UI', sans-serif"
      font-size="24"
      font-weight="750"
    >
      おすすめ 20:00-21:00
    </text>
    <text
      x="42"
      y="352"
      fill="#5f8172"
      font-family="-apple-system, BlinkMacSystemFont, 'Segoe UI', sans-serif"
      font-size="22"
      font-weight="700"
    >
      7日分の指数 / 取得条件 / 分類別スコア
    </text>
  </g>
</svg>
